<?xml version="1.0" encoding="UTF-8"?>
<svg id="a" data-name="Layer 1" xmlns="http://www.w3.org/2000/svg" width="526" height="526" viewBox="0 0 526 526">
  <g>
    <path d="m415.676,231.238c-14.935-73.518-80.319-126.878-155.469-126.878s-140.525,53.36-155.46,126.878l-4.9-.995c7.402-36.438,27.355-69.625,56.184-93.447,29.213-24.141,66.21-37.436,104.176-37.436s74.965,13.295,104.181,37.436c28.831,23.823,48.786,57.01,56.188,93.447l-4.9.995Z" fill="#e6e7e8"/>
    <path d="m260.207,426.64c-37.519,0-72.81-12.35-102.058-35.714-28.39-22.68-48.659-54.519-57.073-89.653l4.862-1.164c17.136,71.556,80.574,121.531,154.269,121.531s137.142-49.976,154.278-121.531l4.863,1.164c-8.414,35.134-28.686,66.974-57.078,89.653-29.251,23.364-64.544,35.714-102.063,35.714Z" fill="#e6e7e8"/>
  </g>
  <g>
    <path d="m183.234,374.092c.77-1.006.624-1.842-.134-3.232l-.525-.987c-1.462-2.744-1.887-4.868-.271-6.977,1.753-2.288,4.666-2.261,7.554-.048,1.359,1.041,2.397,2.406,2.859,3.729l-2.201,2.551-1.749-1.34,1.74-3.234,1.117,1.724-.73.953c-.453-1.515-.871-2.459-1.853-3.212-1.088-.833-2.492-.816-3.292.228-.772,1.008-.573,1.996.169,3.368l.581,1.095c1.593,2.961,1.788,4.776.31,6.706-1.723,2.248-4.665,2.521-7.922.025-1.43-1.095-2.796-2.649-3.374-4.166l2.285-2.746,1.776,1.361-1.869,3.466-1.116-1.593.701-.915c.71,1.578,1.235,2.52,2.462,3.46,1.357,1.039,2.69.817,3.481-.215Z" fill="#e6e7e8"/>
    <path d="m205.598,389.207c1.942.931,3.725.19,5.291-3.073l3.879-8.09,1.41.676-3.88,8.091c-2.201,4.59-5.259,5.507-8.836,3.792-3.2-1.535-4.765-4.229-2.753-8.426l1.128-2.353c1.023-2.135,2.073-4.323,3.047-6.521l3.763,1.805c-1.083,2.092-2.132,4.28-3.176,6.458l-.797,1.662c-1.59,3.316-1.126,4.995.925,5.979Zm-2.812-15.479l.557-1.162,7.058,3.385-.557,1.162-3.375-1.22-.62-.297-3.063-1.868Zm11.667,5.841l-2.206-1.304.557-1.162,5.162,2.476-.557,1.162-2.32-.867-.636-.305Z" fill="#e6e7e8"/>
    <path d="m229.359,397.838l3.348,1.241-.324,1.247-7.491-1.944.324-1.247,3.461.526.682.177Zm-.588-7.051c.621-2.393,1.248-4.808,1.799-7.218l4.039,1.048c-.678,2.328-1.305,4.743-1.938,7.182l-.219.843c-.625,2.409-1.252,4.824-1.803,7.234l-4.039-1.048c.678-2.328,1.305-4.743,1.938-7.182l.223-.859Zm-.243-6.416l.324-1.248,7.491,1.944-.324,1.248-3.528-.544-.682-.178-3.281-1.223Z" fill="#e6e7e8"/>
    <path d="m248.102,388.583l1.832-1.227-.951,4.405-1.997-.145.411-4.445,14.057,1.021-.253,4.457-1.98-.145-.304-4.497,1.618,1.478-12.433-.903Zm5.79,13.22l3.585.621-.093,1.286-8.202-.596.093-1.286,3.568-.102,1.049.076Zm-2.024-6.845c.179-2.466.36-4.956.467-7.428l4.164.303c-.248,2.413-.428,4.903-.611,7.417l-.063.868c-.18,2.483-.361,4.974-.468,7.444l-4.164-.302c.248-2.413.428-4.903.611-7.417l.064-.886Z" fill="#e6e7e8"/>
    <path d="m272.853,389.011l-.137-1.281,7.697-.822.137,1.282-3.494.734-.701.075-3.502.012Zm5.527,12.313l3.571-.02.137,1.282-7.698.822-.137-1.282,3.426-.728.701-.075Zm-3.038-6.393c-.263-2.458-.527-4.94-.861-7.391l4.15-.443c.186,2.418.451,4.9.719,7.405l.093.866c.264,2.476.529,4.958.863,7.408l-4.151.443c-.186-2.418-.45-4.9-.718-7.406l-.095-.883Z" fill="#e6e7e8"/>
    <path d="m293.199,385.44l1.522.243-2.553.553-.384-1.248,5.178-1.592,11.698,8.763,1.174,3.821-1.941.597-14.694-11.137Zm.504-1.042l1.861.795,4.248,13.819-1.479.454-4.631-15.068Zm2.304,14.436l2.335-1.094.657-.202,3.058-.563.379,1.231-6.051,1.86-.378-1.232Zm5.082-16.705l6.051-1.86.378,1.231-2.221,1.06-.641.197-3.188.604-.379-1.231Zm2.623-.807l1.478-.454,4.646,15.112-1.932-1.023-4.191-13.635Z" fill="#e6e7e8"/>
    <path d="m336.944,381.661c-.981,1.655-2.177,2.854-4.027,3.91-4.289,2.449-8.764,1.404-11.362-3.146-2.504-4.386-1.379-8.768,3.349-11.467,1.369-.781,3.006-1.302,4.585-1.351l1.938,3.2-1.617.923-2.622-2.893,1.612-.527.627,1.099c-1.478-.22-2.529-.027-3.442.494-2.257,1.288-3.104,4.266-.736,8.412,2.364,4.142,5.312,5.032,7.616,3.717.872-.498,1.324-1.076,1.945-2.085l-.819,2.246-.905-1.585c-.965-1.689-1.888-3.259-2.902-4.939l3.444-1.967c.911,1.692,1.832,3.354,2.82,5.086l.498.872Zm-7.976-1.813l-.64-1.12,6.352-3.627.64,1.12-2.256,1.724-1.364.779-2.731,1.124Z" fill="#e6e7e8"/>
    <path d="m349.635,369.382c-.795-.985-1.642-1.041-3.172-.634l-1.082.276c-3.013.771-5.176.682-6.843-1.387-1.808-2.244-1.092-5.067,1.74-7.35,1.333-1.074,2.904-1.759,4.298-1.896l1.957,2.742-1.715,1.381-2.729-2.455,1.938-.678.753.935c-1.579.081-2.594.265-3.558,1.041-1.067.859-1.384,2.228-.558,3.252.796.988,1.804,1.028,3.312.632l1.201-.305c3.252-.849,5.062-.607,6.587,1.284,1.777,2.205,1.347,5.128-1.848,7.702-1.402,1.129-3.235,2.089-4.846,2.292l-2.127-2.869,1.742-1.403,2.925,2.635-1.812.708-.723-.897c1.7-.316,2.739-.604,3.943-1.573,1.33-1.072,1.43-2.42.614-3.434Z" fill="#e6e7e8"/>
  </g>
  <g>
    <path d="m141.064,195.533l-.213-2.194,3.431,2.923-1.073,1.69-3.72-2.466,7.552-11.897,3.806,2.332-1.064,1.675-4.105-1.86,2.067-.726-6.68,10.522Zm7.397-.299c-2.087-1.325-4.195-2.663-6.32-3.927l2.237-3.524c2.008,1.36,4.116,2.698,6.243,4.048l.736.467c2.102,1.334,4.209,2.672,6.335,3.936l-2.237,3.524c-2.008-1.36-4.116-2.698-6.243-4.048l-.75-.476Zm6.987,1.457l2.244-2.863,1.088.69-4.406,6.942-1.088-.691,1.599-3.19.563-.888Z" fill="#e6e7e8"/>
    <path d="m152.944,177.756l-.959-.861,5.058-5.63.958.861-2.071,2.845-.471.525-2.515,2.26Zm5.787,2.762c-1.839-1.652-3.696-3.32-5.583-4.918l2.789-3.105c1.755,1.673,3.612,3.341,5.486,5.025l.548.493c1.951,1.753,3.808,3.42,5.695,5.019l-2.789,3.105c-1.755-1.673-3.612-3.341-5.486-5.025l-.661-.593Zm.382-9.629l-.959-.861,5.058-5.63.958.861-2.037,2.806-.448.499-2.572,2.325Zm5.729,2.826c-1.839-1.652-3.696-3.32-5.583-4.918l2.789-3.105c1.755,1.673,3.612,3.341,5.486,5.025l.661.594c1.839,1.652,3.695,3.32,5.583,4.918l-2.789,3.105c-1.755-1.673-3.612-3.341-5.599-5.126l-.548-.493Zm-4.076,5.922l-1.04-.934,6.111-6.803,1.04.935-6.111,6.802Zm4.44,3.667l2.607-2.364.959.861-5.058,5.63-.959-.861,1.979-2.742.471-.524Zm6.204-6.906l2.572-2.325.959.861-5.058,5.63-.958-.861,2.037-2.806.448-.499Z" fill="#e6e7e8"/>
    <path d="m170.42,159.587l-.805-1.006,3.015-2.414,1.031,1.288-.296.236-2.945,1.896Zm5.287,3.648c-1.545-1.93-3.105-3.879-4.706-5.764l3.259-2.609c1.459,1.938,3.019,3.886,4.594,5.854l.494.618c1.606,2.006,3.166,3.955,4.767,5.84l-3.259,2.608c-1.458-1.938-3.019-3.886-4.593-5.854l-.555-.693Zm1.492-10.725l2.205-.028-5.926,4.743-.847-1.059,6.554-5.247,2.714,3.122-1.563,1.251-3.137-2.784Zm4.769,6.863l-4.127,3.303-.885-1.105,4.127-3.303.885,1.105Zm-.513,7.817l1.031,1.288-3.016,2.414-.806-1.006,2.495-2.458.295-.237Zm-.686-8.142l-1.157-2.022,1.086-.87,3.23,4.035-1.086.87-1.794-1.666-.278-.348Zm6.193.55l2.452,3.333-6.929,5.546-.837-1.045,6.3-5.043-.521,2.131-2.029-3.67,1.563-1.251Z" fill="#e6e7e8"/>
    <path d="m213.271,146.927l.531,1.114-1.301,1.011-.889-3.742,1.65-.787,1.501,3.371c-.855,1.197-2.163,2.384-4.023,3.271-4.173,1.99-8.7,1.128-11.112-3.933-2.446-5.131.022-9.241,4.091-11.181,1.639-.781,3.133-1.043,4.755-.952l1.689,3.319-1.65.787-2.378-3.07,1.612-.358.57,1.197c-1.475-.438-2.527-.407-3.505.059-2.315,1.104-3.451,3.958-1.339,8.386,2.104,4.413,4.939,5.335,7.231,4.243,1.079-.515,1.924-1.465,2.566-2.734Z" fill="#e6e7e8"/>
    <path d="m216.544,132.584l-.375-1.233,7.573-2.299.375,1.233-3.295,1.376-.841.255-3.438.667Zm1.324-1.749l3.994-1.213c.639,2.353,1.364,4.742,2.093,7.14l.367,1.21c.613,2.018,1.338,4.406,2.122,6.738l-3.994,1.213c-.639-2.353-1.364-4.741-1.947-6.659l-.404-1.331c-.722-2.378-1.447-4.767-2.23-7.098Zm6.1,12.904l.479,1.578-3.695,1.123-.375-1.233,3.229-1.357.362-.11Zm7.541-5.481l1.137,4.569-8.198,2.489-.399-1.314,7.428-2.255-1.345,1.843-.464-4.773,1.842-.559Z" fill="#e6e7e8"/>
    <path d="m237.776,140.256l2.396-.699.424-.059,2.305.041.179,1.277-5.125.717-.179-1.277Zm4.747-15.321l2.456-.344,7.538,14.904-4.063.569-5.844-12.197.722-1.325-2.586,14.601-1.409.197,3.188-16.405Zm-1.197,10.087l6.418-.898.729,1.311-7.351,1.028.204-1.441Zm4.654,4.138l2.637-.732,1.59-.223,3.101-.07.171,1.225-7.328,1.025-.171-1.225Z" fill="#e6e7e8"/>
    <path d="m267.025,135.996c.021-1.266-.594-1.851-2.03-2.518l-1.009-.48c-2.808-1.336-4.413-2.79-4.369-5.446.047-2.881,2.405-4.592,6.042-4.532,1.712.028,3.357.508,4.516,1.295l-.251,3.359-2.202-.037-.525-3.634,1.923.72-.021,1.2c-1.265-.948-2.161-1.458-3.398-1.479-1.37-.022-2.489.826-2.511,2.141-.021,1.27.727,1.945,2.14,2.606l1.118.534c3.041,1.431,4.278,2.774,4.238,5.204-.047,2.833-2.249,4.802-6.351,4.734-1.801-.03-3.823-.466-5.19-1.341l.203-3.566,2.237.037.56,3.897-1.845-.616.019-1.152c1.509.846,2.492,1.29,4.037,1.315,1.709.028,2.648-.943,2.67-2.244Z" fill="#e6e7e8"/>
    <path d="m284.948,137.707c.188-1.252-.345-1.914-1.682-2.764l-.936-.609c-2.608-1.694-4.007-3.347-3.614-5.974.427-2.851,2.989-4.236,6.587-3.697,1.693.253,3.262.946,4.307,1.879l-.692,3.297-2.179-.326-.042-3.672,1.812.967-.178,1.187c-1.129-1.106-1.951-1.73-3.175-1.913-1.355-.203-2.576.491-2.771,1.792-.188,1.256.465,2.024,1.778,2.865l1.038.677c2.826,1.819,3.876,3.314,3.516,5.717-.419,2.801-2.861,4.464-6.919,3.856-1.781-.267-3.729-.965-4.969-2.013l.671-3.508,2.213.331.042,3.938-1.748-.854.171-1.14c1.385,1.037,2.3,1.607,3.828,1.836,1.69.253,2.75-.586,2.942-1.873Z" fill="#e6e7e8"/>
    <path d="m298.517,142.428l3.323,1.309-.35,1.241-7.452-2.097.35-1.241,3.45.597.679.191Zm-.444-7.063c.669-2.379,1.346-4.782,1.945-7.181l4.019,1.131c-.727,2.313-1.402,4.716-2.085,7.142l-.235.838c-.675,2.396-1.351,4.799-1.951,7.198l-4.018-1.131c.726-2.313,1.402-4.716,2.084-7.142l.241-.855Zm-.112-6.421l.35-1.241,7.451,2.097-.349,1.241-3.518-.616-.679-.191-3.256-1.29Z" fill="#e6e7e8"/>
    <path d="m319.737,149.707l-.488,1.132-1.617-.313,2.23-3.132,1.678.724-1.549,3.348c-1.464.144-3.217-.058-5.109-.875-4.244-1.831-6.575-5.804-4.354-10.95,2.251-5.218,6.97-6.065,11.106-4.28,1.667.719,2.848,1.671,3.847,2.952l-1.387,3.456-1.678-.724.745-3.81,1.331.978-.525,1.217c-.642-1.398-1.356-2.17-2.351-2.599-2.354-1.016-5.249.008-7.192,4.511-1.936,4.487-.765,7.228,1.567,8.234,1.097.473,2.369.483,3.746.132Z" fill="#e6e7e8"/>
    <path d="m338.279,161.616l2.365,1.536.524.445,1.573,1.808-.834.983-4.463-3.789.834-.982Zm11.137-9.539l1.046.888-5.241,6.454-4.826,5.684-1.184-1.005,10.205-12.021Zm.111.094l3.106,2.638-4.267,11.702-.608-.517,10.67-6.265,1.207,1.025-14.427,8.437-1.411-1.198,5.729-15.821Zm-1.718-1.458l2.612,2.218-1.04,1.28-.299-.254-2.108-2.262.835-.982Zm.095,19.075l2.573,1.713.842.714,2.422,2.529-.834.983-5.837-4.956.834-.983Zm5.023-3.145l5.781-6.675,3.051,2.59c-1.646,1.827-3.262,3.73-4.87,5.625l-.575.677c-1.622,1.911-3.237,3.813-4.761,5.718l-3.172-2.693c1.646-1.828,3.249-3.742,4.546-5.242Zm7.241-5.436l2.878,2.444-.834.982-2.823-1.924-.288-.245,1.067-1.257Z" fill="#e6e7e8"/>
    <path d="m357.575,178.94l1.838,1.687.27.332,1.158,1.991-.999.814-3.266-4.01.999-.814Zm15.555-3.874l1.565,1.921-8.839,14.16-2.59-3.179,7.401-11.311,1.507-.069-13.821,5.348-.898-1.102,15.675-5.768Zm-10.371,10.321l1.991,1.875,1.014,1.245,1.666,2.614-.959.781-4.671-5.733.959-.781Zm1.128-6.122l4.091,5.022-.743,1.301-4.685-5.751,1.337-.572Z" fill="#e6e7e8"/>
    <path d="m370.704,195.771l1.573,2.044.34.598,1.211,2.864-1.121.636-3.124-5.506,1.121-.636Zm13.6-5.369l-.373,1.989-12.578,7.135-.763-1.345,13.714-7.779Zm-1.126-.267l.092,1.54-1.092-2.374,1.137-.645,2.673,4.713-6.03,13.318-3.478,1.973-1.003-1.768,7.701-16.757Zm6.294,9.377l.763,1.345-13.755,7.803.582-2.108,12.41-7.04Zm-1.354-2.388l3.124,5.507-1.121.636-1.515-1.94-.33-.583-1.279-2.984,1.121-.636Z" fill="#e6e7e8"/>
  </g>
  <g>
    <path d="m27.392,252.507l3.982-3.107-1.442,10.225h-4.587l.202-10.225h32.288l.162,10.225h-4.547l-1.442-10.225,3.942,3.107h-28.557Zm15.424,29.246l8.294.825v2.953h-18.838v-2.953l8.135-.825h2.409Zm-5.762-15.305c0-5.665,0-11.384-.165-17.048h9.564c-.165,5.554-.165,11.273-.165,17.048v1.995c0,5.704,0,11.424.165,17.088h-9.564c.165-5.555.165-11.273.165-17.048v-2.035Z" fill="#e6e7e8"/>
    <path d="m60.915,252.354v-2.954h17.342v2.954l-8.022.825h-1.615l-7.705-.825Zm9.32,29.399l8.022.825v2.953h-17.342v-2.953l7.705-.825h1.615Zm-5.167-15.305c0-5.665,0-11.384-.165-17.048h9.564c-.165,5.554-.165,11.273-.165,17.048v1.689c0,6.01,0,11.729.165,17.394h-9.564c.165-5.555.165-11.273.165-17.048v-2.035Zm4.617,2.12v-3.204h20.955v3.204h-20.955Zm12.382-16.215v-2.954h17.342v2.954l-7.903.825h-1.536l-7.903-.825Zm9.439,29.399l7.903.825v2.953h-17.342v-2.953l7.903-.825h1.536Zm-5.484-15.305c0-5.665,0-11.384-.165-17.048h9.564c-.165,5.554-.165,11.273-.165,17.048v2.035c0,5.664,0,11.384.165,17.048h-9.564c.165-5.555.165-11.273.165-17.394v-1.689Z" fill="#e6e7e8"/>
    <path d="m102.99,252.354v-2.954h8.85v3.778h-.868l-7.982-.825Zm8.85,29.399v3.778h-8.85v-2.953l7.982-.825h.868Zm-4.617-15.305c0-5.665,0-11.384-.165-17.048h9.564c-.165,5.554-.165,11.273-.165,17.048v1.812c0,5.888,0,11.607.165,17.271h-9.564c.165-5.555.165-11.273.165-17.048v-2.035Zm18.025-17.048l3.982,3.107h-17.39v-3.107h19.235l.385,9.471h-4.587l-1.625-9.471Zm-1.297,19.104h-12.111v-3.243h12.111v3.243Zm8.609,7.556l-.385,9.472h-20.335v-3.067h18.49l-3.982,3.067,1.625-9.472h4.587Zm-10.29-9.853l.825-5.274h3.189v11.843h-3.189l-.825-5.549v-1.021Z" fill="#e6e7e8"/>
    <path d="m176.046,280.285v2.826l-3.687.81,1.851-8.615h4.188l-.22,8.45c-2.949,1.632-6.823,2.799-11.545,2.799-10.592,0-19.103-6.243-19.103-19.089,0-13.022,9.158-19.089,19.485-19.089,4.16,0,7.509.932,10.772,2.719l.22,8.529h-4.188l-1.891-8.694,3.688.849v3.037c-2.619-2.359-4.826-3.333-7.307-3.333-5.876,0-11.038,4.782-11.038,16.021s4.953,15.903,10.772,15.903c2.738,0,5.424-1.134,8.003-3.123Z" fill="#e6e7e8"/>
    <path d="m181.693,252.354v-2.954h18.136v2.954l-8.141.825h-2.013l-7.982-.825Zm8.85,29.399v3.778h-8.85v-2.953l7.982-.825h.868Zm-4.782-32.353h9.564c-.165,5.585-.165,11.304-.165,17.048v2.896c0,4.833,0,10.553.165,16.187h-9.564c.165-5.585.165-11.305.165-15.897v-3.186c0-5.695,0-11.415-.165-17.048Zm24.964,25.356l-.55,10.775h-19.632v-3.146h17.787l-4.175,3.146,2.16-10.775h4.411Z" fill="#e6e7e8"/>
    <path d="m212.265,282.578l5.658-.825h.981l5.216.825v2.953h-11.855v-2.953Zm15.634-33.255h5.68l12.37,36.208h-9.399l-9.387-29.529,2.058-2.777-10.504,32.306h-3.259l12.441-36.208Zm-5.918,22.508h14.848l1.237,3.204h-17.004l.919-3.204Zm9.247,10.865l6.215-.824h3.679l7.057.824v2.835h-16.951v-2.835Z" fill="#e6e7e8"/>
    <path d="m268.722,278.048c0-2.9-1.43-4.217-4.747-5.69l-2.328-1.062c-6.482-2.954-10.213-6.223-10.213-12.308,0-6.602,5.335-10.61,13.668-10.61,3.922,0,7.71,1.036,10.392,2.796l-.448,7.704h-5.046l-1.342-8.304,4.433,1.577v2.75c-2.933-2.124-5.007-3.257-7.843-3.257-3.139,0-5.669,1.986-5.669,5,0,2.909,1.739,4.428,5,5.888l2.581,1.182c7.021,3.162,9.904,6.192,9.904,11.759,0,6.489-4.968,11.084-14.367,11.084-4.125,0-8.774-.923-11.938-2.875l.33-8.176h5.124l1.431,8.906-4.249-1.342v-2.64c3.488,1.88,5.755,2.86,9.296,2.86,3.916,0,6.031-2.261,6.031-5.241Z" fill="#e6e7e8"/>
    <path d="m298.146,278.048c0-2.9-1.43-4.217-4.746-5.69l-2.328-1.062c-6.482-2.954-10.213-6.223-10.213-12.308,0-6.602,5.335-10.61,13.668-10.61,3.922,0,7.71,1.036,10.392,2.796l-.448,7.704h-5.046l-1.342-8.304,4.433,1.577v2.75c-2.933-2.124-5.007-3.257-7.843-3.257-3.139,0-5.669,1.986-5.669,5,0,2.909,1.739,4.428,5,5.888l2.581,1.182c7.021,3.162,9.904,6.192,9.904,11.759,0,6.489-4.968,11.084-14.366,11.084-4.125,0-8.774-.923-11.938-2.875l.33-8.176h5.124l1.431,8.906-4.249-1.342v-2.64c3.488,1.88,5.755,2.86,9.296,2.86,3.915,0,6.03-2.261,6.03-5.241Z" fill="#e6e7e8"/>
    <path d="m309.73,252.354v-2.954h17.739v2.954l-8.141.825h-1.616l-7.982-.825Zm9.599,29.399l8.141.825v2.953h-17.739v-2.953l7.982-.825h1.616Zm-5.366-15.305c0-5.665,0-11.384-.165-17.048h9.564c-.165,5.554-.165,11.273-.165,17.048v1.995c0,5.704,0,11.424.165,17.088h-9.564c.165-5.555.165-11.273.165-17.048v-2.035Z" fill="#e6e7e8"/>
    <path d="m358.863,280.285v2.826l-3.688.81,1.851-8.615h4.188l-.221,8.45c-2.948,1.632-6.822,2.799-11.545,2.799-10.593,0-19.104-6.243-19.104-19.089,0-13.022,9.158-19.089,19.485-19.089,4.16,0,7.509.932,10.772,2.719l.22,8.529h-4.188l-1.891-8.694,3.687.849v3.037c-2.618-2.359-4.825-3.333-7.306-3.333-5.877,0-11.038,4.782-11.038,16.021s4.953,15.903,10.771,15.903c2.738,0,5.425-1.134,8.004-3.123Z" fill="#e6e7e8"/>
    <path d="m375.489,282.578l6.408-.825h1.576l5.43.825v2.953h-13.414v-2.953Zm.476-33.178h7.854l.079,3.778h-.897l-7.036-.825v-2.954Zm4.83,0h3.144l.415,19.046v17.085h-3.559v-36.131Zm.333,0h9.338l9.902,26.766h-1.83l9.347-26.766h3.629l-12.688,36.131h-4.241l-13.457-36.131Zm23.291,33.178l7.036-.825h2.528l7.981.825v2.953h-17.546v-2.953Zm4.11-12.944l.198-20.234h9.17c-.164,5.634-.164,11.353-.164,17.048v2.035c0,5.743,0,11.463.164,17.048h-9.533c.165-5.634.125-11.354.165-15.897Zm4.586-20.234h8.651v2.954l-7.783.825h-.868v-3.778Z" fill="#e6e7e8"/>
    <path d="m424.232,282.578l5.657-.825h.981l5.216.825v2.953h-11.854v-2.953Zm15.634-33.255h5.68l12.371,36.208h-9.399l-9.388-29.529,2.059-2.777-10.504,32.306h-3.26l12.441-36.208Zm-5.918,22.508h14.848l1.237,3.204h-17.005l.92-3.204Zm9.246,10.865l6.215-.824h3.679l7.058.824v2.835h-16.951v-2.835Z" fill="#e6e7e8"/>
    <path d="m462.282,282.578l5.854-.825h1.576l7.078.825v2.953h-14.508v-2.953Zm2.87-31.235l3.171,1.558-5.964-.507v-2.993h12.415l19.727,27.076v9.163h-4.656l-24.692-34.296Zm1.805-1.943l3.543,2.993v33.138h-3.543v-36.131Zm17.711,0h14.508v2.954l-5.579.825h-1.536l-7.393-.825v-2.954Zm6.29,0h3.543v36.239l-3.543-3.543v-32.696Z" fill="#e6e7e8"/>
  </g>
</svg>