<?xml version="1.0" encoding="UTF-8"?><svg id="a" xmlns="http://www.w3.org/2000/svg" viewBox="0 0 477.51 327.28"><path d="m78.05,131.38C92.99,57.84,158.01,2.5,235.96,2.5s142.98,55.34,157.92,128.88" style="fill:none; stroke:#e6e7e8; stroke-miterlimit:10; stroke-width:5px;"/><path d="m392.67,201.33c-16.96,70.82-80.69,123.45-156.71,123.45s-139.74-52.63-156.7-123.45" style="fill:none; stroke:#e6e7e8; stroke-miterlimit:10; stroke-width:5px;"/><path d="m158.99,274.73c.77-1.01.62-1.84-.13-3.23l-.52-.99c-1.46-2.74-1.89-4.87-.27-6.98,1.75-2.29,4.67-2.26,7.55-.05,1.36,1.04,2.4,2.41,2.86,3.73l-2.2,2.55-1.75-1.34,1.74-3.23,1.12,1.72-.73.95c-.45-1.51-.87-2.46-1.85-3.21-1.09-.83-2.49-.82-3.29.23-.77,1.01-.57,2,.17,3.37l.58,1.09c1.59,2.96,1.79,4.78.31,6.71-1.72,2.25-4.67,2.52-7.92.03-1.43-1.09-2.8-2.65-3.37-4.17l2.29-2.75,1.78,1.36-1.87,3.47-1.12-1.59.7-.92c.71,1.58,1.24,2.52,2.46,3.46,1.36,1.04,2.69.82,3.48-.21Z" style="fill:#e6e7e8;"/><path d="m181.35,289.85c1.94.93,3.73.19,5.29-3.07l3.88-8.09,1.41.68-3.88,8.09c-2.2,4.59-5.26,5.51-8.84,3.79-3.2-1.54-4.77-4.23-2.75-8.43l1.13-2.35c1.02-2.13,2.07-4.32,3.05-6.52l3.76,1.8c-1.08,2.09-2.13,4.28-3.18,6.46l-.8,1.66c-1.59,3.32-1.13,5,.92,5.98Zm-2.81-15.48l.56-1.16,7.06,3.38-.56,1.16-3.37-1.22-.62-.3-3.06-1.87Zm11.67,5.84l-2.21-1.3.56-1.16,5.16,2.48-.56,1.16-2.32-.87-.64-.3Z" style="fill:#e6e7e8;"/><path d="m205.11,298.48l3.35,1.24-.32,1.25-7.49-1.94.32-1.25,3.46.53.68.18Zm-.59-7.05c.62-2.39,1.25-4.81,1.8-7.22l4.04,1.05c-.68,2.33-1.31,4.74-1.94,7.18l-.22.84c-.63,2.41-1.25,4.82-1.8,7.23l-4.04-1.05c.68-2.33,1.31-4.74,1.94-7.18l.22-.86Zm-.24-6.42l.32-1.25,7.49,1.94-.32,1.25-3.53-.54-.68-.18-3.28-1.22Z" style="fill:#e6e7e8;"/><path d="m223.86,289.22l1.83-1.23-.95,4.41-2-.14.41-4.45,14.06,1.02-.25,4.46-1.98-.14-.3-4.5,1.62,1.48-12.43-.9Zm5.79,13.22l3.58.62-.09,1.29-8.2-.6.09-1.29,3.57-.1,1.05.08Zm-2.02-6.84c.18-2.47.36-4.96.47-7.43l4.16.3c-.25,2.41-.43,4.9-.61,7.42l-.06.87c-.18,2.48-.36,4.97-.47,7.44l-4.16-.3c.25-2.41.43-4.9.61-7.42l.06-.89Z" style="fill:#e6e7e8;"/><path d="m248.61,289.65l-.14-1.28,7.7-.82.14,1.28-3.49.73-.7.08h-3.5Zm5.53,12.31l3.57-.02.14,1.28-7.7.82-.14-1.28,3.43-.73.7-.08Zm-3.04-6.39c-.26-2.46-.53-4.94-.86-7.39l4.15-.44c.19,2.42.45,4.9.72,7.41l.09.87c.26,2.48.53,4.96.86,7.41l-4.15.44c-.19-2.42-.45-4.9-.72-7.41l-.09-.88Z" style="fill:#e6e7e8;"/><path d="m268.95,286.08l1.52.24-2.55.55-.38-1.25,5.18-1.59,11.7,8.76,1.17,3.82-1.94.6-14.69-11.14Zm.5-1.04l1.86.79,4.25,13.82-1.48.45-4.63-15.07Zm2.3,14.44l2.33-1.09.66-.2,3.06-.56.38,1.23-6.05,1.86-.38-1.23Zm5.08-16.71l6.05-1.86.38,1.23-2.22,1.06-.64.2-3.19.6-.38-1.23Zm2.62-.81l1.48-.45,4.65,15.11-1.93-1.02-4.19-13.63Z" style="fill:#e6e7e8;"/><path d="m312.7,282.3c-.98,1.66-2.18,2.85-4.03,3.91-4.29,2.45-8.76,1.4-11.36-3.15-2.5-4.39-1.38-8.77,3.35-11.47,1.37-.78,3.01-1.3,4.58-1.35l1.94,3.2-1.62.92-2.62-2.89,1.61-.53.63,1.1c-1.48-.22-2.53-.03-3.44.49-2.26,1.29-3.1,4.27-.74,8.41,2.36,4.14,5.31,5.03,7.62,3.72.87-.5,1.32-1.08,1.95-2.08l-.82,2.25-.91-1.58c-.96-1.69-1.89-3.26-2.9-4.94l3.44-1.97c.91,1.69,1.83,3.35,2.82,5.09l.5.87Zm-7.98-1.81l-.64-1.12,6.35-3.63.64,1.12-2.26,1.72-1.36.78-2.73,1.12Z" style="fill:#e6e7e8;"/><path d="m325.39,270.02c-.79-.99-1.64-1.04-3.17-.63l-1.08.28c-3.01.77-5.18.68-6.84-1.39-1.81-2.24-1.09-5.07,1.74-7.35,1.33-1.07,2.9-1.76,4.3-1.9l1.96,2.74-1.71,1.38-2.73-2.46,1.94-.68.75.93c-1.58.08-2.59.26-3.56,1.04-1.07.86-1.38,2.23-.56,3.25.8.99,1.8,1.03,3.31.63l1.2-.3c3.25-.85,5.06-.61,6.59,1.28,1.78,2.21,1.35,5.13-1.85,7.7-1.4,1.13-3.24,2.09-4.85,2.29l-2.13-2.87,1.74-1.4,2.92,2.63-1.81.71-.72-.9c1.7-.32,2.74-.6,3.94-1.57,1.33-1.07,1.43-2.42.61-3.43Z" style="fill:#e6e7e8;"/><path d="m116.82,96.17l-.21-2.19,3.43,2.92-1.07,1.69-3.72-2.47,7.55-11.9,3.81,2.33-1.06,1.68-4.1-1.86,2.07-.73-6.68,10.52Zm7.4-.3c-2.09-1.33-4.19-2.66-6.32-3.93l2.24-3.52c2.01,1.36,4.12,2.7,6.24,4.05l.74.47c2.1,1.33,4.21,2.67,6.33,3.94l-2.24,3.52c-2.01-1.36-4.12-2.7-6.24-4.05l-.75-.48Zm6.99,1.46l2.24-2.86,1.09.69-4.41,6.94-1.09-.69,1.6-3.19.56-.89Z" style="fill:#e6e7e8;"/><path d="m128.7,78.4l-.96-.86,5.06-5.63.96.86-2.07,2.84-.47.52-2.51,2.26Zm5.79,2.76c-1.84-1.65-3.7-3.32-5.58-4.92l2.79-3.1c1.75,1.67,3.61,3.34,5.49,5.02l.55.49c1.95,1.75,3.81,3.42,5.69,5.02l-2.79,3.1c-1.75-1.67-3.61-3.34-5.49-5.03l-.66-.59Zm.38-9.63l-.96-.86,5.06-5.63.96.86-2.04,2.81-.45.5-2.57,2.33Zm5.73,2.83c-1.84-1.65-3.7-3.32-5.58-4.92l2.79-3.1c1.75,1.67,3.61,3.34,5.49,5.02l.66.59c1.84,1.65,3.7,3.32,5.58,4.92l-2.79,3.1c-1.76-1.67-3.61-3.34-5.6-5.13l-.55-.49Zm-4.08,5.92l-1.04-.93,6.11-6.8,1.04.93-6.11,6.8Zm4.44,3.67l2.61-2.36.96.86-5.06,5.63-.96-.86,1.98-2.74.47-.52Zm6.2-6.91l2.57-2.33.96.86-5.06,5.63-.96-.86,2.04-2.81.45-.5Z" style="fill:#e6e7e8;"/><path d="m146.18,60.23l-.81-1.01,3.02-2.41,1.03,1.29-.3.24-2.94,1.9Zm5.29,3.65c-1.54-1.93-3.1-3.88-4.71-5.76l3.26-2.61c1.46,1.94,3.02,3.89,4.59,5.85l.49.62c1.61,2.01,3.17,3.95,4.77,5.84l-3.26,2.61c-1.46-1.94-3.02-3.89-4.59-5.85l-.56-.69Zm1.49-10.73l2.2-.03-5.93,4.74-.85-1.06,6.55-5.25,2.71,3.12-1.56,1.25-3.14-2.78Zm4.77,6.86l-4.13,3.3-.88-1.1,4.13-3.3.88,1.1Zm-.51,7.82l1.03,1.29-3.02,2.41-.81-1.01,2.5-2.46.3-.24Zm-.69-8.14l-1.16-2.02,1.09-.87,3.23,4.04-1.09.87-1.79-1.67-.28-.35Zm6.19.55l2.45,3.33-6.93,5.55-.84-1.04,6.3-5.04-.52,2.13-2.03-3.67,1.56-1.25Z" style="fill:#e6e7e8;"/><path d="m189,47.57l.53,1.11-1.3,1.01-.89-3.74,1.65-.79,1.5,3.37c-.85,1.2-2.16,2.39-4.02,3.27-4.17,1.99-8.7,1.14-11.11-3.92-2.45-5.13.02-9.24,4.08-11.18,1.64-.78,3.13-1.05,4.75-.96l1.69,3.32-1.65.79-2.38-3.07,1.61-.36.57,1.2c-1.48-.44-2.53-.4-3.5.06-2.31,1.11-3.45,3.96-1.33,8.38,2.11,4.41,4.94,5.33,7.23,4.23,1.08-.52,1.92-1.47,2.56-2.73Z" style="fill:#e6e7e8;"/><path d="m192.3,33.22l-.37-1.23,7.57-2.3.37,1.23-3.29,1.38-.84.26-3.44.67Zm1.32-1.75l3.99-1.21c.64,2.35,1.36,4.74,2.09,7.14l.37,1.21c.61,2.02,1.34,4.41,2.12,6.74l-3.99,1.21c-.64-2.35-1.36-4.74-1.95-6.66l-.4-1.33c-.72-2.38-1.45-4.77-2.23-7.1Zm6.1,12.9l.48,1.58-3.7,1.12-.38-1.23,3.23-1.36.36-.11Zm7.54-5.48l1.14,4.57-8.2,2.49-.4-1.31,7.43-2.26-1.34,1.84-.46-4.77,1.84-.56Z" style="fill:#e6e7e8;"/><path d="m213.53,40.9l2.4-.7.42-.06,2.3.04.18,1.28-5.12.72-.18-1.28Zm4.75-15.32l2.46-.34,7.54,14.9-4.06.57-5.84-12.2.72-1.33-2.59,14.6-1.41.2,3.19-16.4Zm-1.2,10.09l6.42-.9.73,1.31-7.35,1.03.2-1.44Zm4.65,4.14l2.64-.73,1.59-.22,3.1-.07.17,1.23-7.33,1.03-.17-1.23Z" style="fill:#e6e7e8;"/><path d="m242.78,36.64c.02-1.27-.59-1.85-2.03-2.52l-1.01-.48c-2.81-1.34-4.41-2.79-4.37-5.45.05-2.88,2.4-4.59,6.04-4.53,1.71.03,3.36.51,4.52,1.3l-.25,3.36-2.2-.04-.53-3.63,1.92.72-.02,1.2c-1.26-.95-2.16-1.46-3.4-1.48-1.37-.02-2.49.83-2.51,2.14-.02,1.27.73,1.95,2.14,2.61l1.12.53c3.04,1.43,4.28,2.77,4.24,5.2-.05,2.83-2.25,4.8-6.35,4.73-1.8-.03-3.82-.47-5.19-1.34l.2-3.57,2.24.04.56,3.9-1.84-.62.02-1.15c1.51.85,2.49,1.29,4.04,1.32,1.71.03,2.65-.94,2.67-2.24Z" style="fill:#e6e7e8;"/><path d="m260.7,38.35c.19-1.25-.34-1.91-1.68-2.76l-.94-.61c-2.61-1.69-4.01-3.35-3.61-5.97.43-2.85,2.99-4.24,6.59-3.7,1.69.25,3.26.95,4.31,1.88l-.69,3.3-2.18-.33-.04-3.67,1.81.97-.18,1.19c-1.13-1.11-1.95-1.73-3.17-1.91-1.36-.2-2.58.49-2.77,1.79-.19,1.26.46,2.02,1.78,2.87l1.04.68c2.83,1.82,3.88,3.31,3.52,5.72-.42,2.8-2.86,4.46-6.92,3.86-1.78-.27-3.73-.97-4.97-2.01l.67-3.51,2.21.33.04,3.94-1.75-.85.17-1.14c1.38,1.04,2.3,1.61,3.83,1.84,1.69.25,2.75-.59,2.94-1.87Z" style="fill:#e6e7e8;"/><path d="m274.27,43.07l3.32,1.31-.35,1.24-7.45-2.1.35-1.24,3.45.6.68.19Zm-.44-7.06c.67-2.38,1.35-4.78,1.95-7.18l4.02,1.13c-.73,2.31-1.4,4.72-2.08,7.14l-.24.84c-.67,2.4-1.35,4.8-1.95,7.2l-4.02-1.13c.73-2.31,1.4-4.72,2.08-7.14l.24-.85Zm-.11-6.42l.35-1.24,7.45,2.1-.35,1.24-3.52-.62-.68-.19-3.26-1.29Z" style="fill:#e6e7e8;"/><path d="m295.49,50.35l-.49,1.13-1.62-.31,2.23-3.13,1.68.72-1.55,3.35c-1.46.14-3.22-.06-5.11-.87-4.24-1.83-6.58-5.8-4.35-10.95,2.25-5.22,6.97-6.07,11.11-4.28,1.67.72,2.85,1.67,3.85,2.95l-1.39,3.46-1.68-.72.75-3.81,1.33.98-.53,1.22c-.64-1.4-1.36-2.17-2.35-2.6-2.35-1.02-5.25,0-7.19,4.51-1.94,4.49-.76,7.23,1.57,8.23,1.1.47,2.37.48,3.75.13Z" style="fill:#e6e7e8;"/><path d="m314.03,62.26l2.37,1.54.52.45,1.57,1.81-.83.98-4.46-3.79.83-.98Zm11.14-9.54l1.05.89-5.24,6.45-4.83,5.68-1.18-1,10.21-12.02Zm.11.09l3.11,2.64-4.27,11.7-.61-.52,10.67-6.26,1.21,1.02-14.43,8.44-1.41-1.2,5.73-15.82Zm-1.72-1.46l2.61,2.22-1.04,1.28-.3-.25-2.11-2.26.83-.98Zm.09,19.07l2.57,1.71.84.71,2.42,2.53-.83.98-5.84-4.96.83-.98Zm5.02-3.15l5.78-6.68,3.05,2.59c-1.65,1.83-3.26,3.73-4.87,5.62l-.58.68c-1.62,1.91-3.24,3.81-4.76,5.72l-3.17-2.69c1.65-1.83,3.25-3.74,4.55-5.24Zm7.24-5.44l2.88,2.44-.83.98-2.82-1.92-.29-.25,1.07-1.26Z" style="fill:#e6e7e8;"/><path d="m333.33,79.58l1.84,1.69.27.33,1.16,1.99-1,.81-3.27-4.01,1-.81Zm15.55-3.87l1.57,1.92-8.84,14.16-2.59-3.18,7.4-11.31,1.51-.07-13.82,5.35-.9-1.1,15.67-5.77Zm-10.37,10.32l1.99,1.87,1.01,1.24,1.67,2.61-.96.78-4.67-5.73.96-.78Zm1.13-6.12l4.09,5.02-.74,1.3-4.68-5.75,1.34-.57Z" style="fill:#e6e7e8;"/><path d="m346.46,96.41l1.57,2.04.34.6,1.21,2.86-1.12.64-3.12-5.51,1.12-.64Zm13.6-5.37l-.37,1.99-12.58,7.14-.76-1.35,13.71-7.78Zm-1.13-.27l.09,1.54-1.09-2.37,1.14-.64,2.67,4.71-6.03,13.32-3.48,1.97-1-1.77,7.7-16.76Zm6.29,9.38l.76,1.34-13.75,7.8.58-2.11,12.41-7.04Zm-1.35-2.39l3.12,5.51-1.12.64-1.51-1.94-.33-.58-1.28-2.98,1.12-.64Z" style="fill:#e6e7e8;"/><path d="m3.15,153.15l3.98-3.11-1.44,10.23H1.1l.2-10.23h32.29l.16,10.23h-4.55l-1.44-10.23,3.94,3.11H3.15Zm15.42,29.25l8.29.83v2.95H8.03v-2.95l8.14-.83h2.41Zm-5.76-15.3c0-5.67,0-11.38-.17-17.05h9.56c-.17,5.55-.17,11.27-.17,17.05v2c0,5.7,0,11.42.17,17.09h-9.56c.17-5.55.17-11.27.17-17.05v-2.04Z" style="fill:#e6e7e8;"/><path d="m36.67,152.99v-2.95h17.34v2.95l-8.02.82h-1.62l-7.7-.82Zm9.32,29.4l8.02.83v2.95h-17.34v-2.95l7.7-.83h1.62Zm-5.17-15.3c0-5.67,0-11.38-.17-17.05h9.56c-.17,5.55-.17,11.27-.17,17.05v1.69c0,6.01,0,11.73.17,17.39h-9.56c.17-5.55.17-11.27.17-17.05v-2.04Zm4.62,2.12v-3.2h20.95v3.2h-20.95Zm12.38-16.21v-2.95h17.34v2.95l-7.9.82h-1.54l-7.9-.82Zm9.44,29.4l7.9.83v2.95h-17.34v-2.95l7.9-.83h1.54Zm-5.48-15.3c0-5.67,0-11.38-.17-17.05h9.56c-.17,5.55-.17,11.27-.17,17.05v2.04c0,5.66,0,11.38.17,17.05h-9.56c.17-5.55.17-11.27.17-17.39v-1.69Z" style="fill:#e6e7e8;"/><path d="m78.74,152.99v-2.95h8.85v3.78h-.87l-7.98-.82Zm8.85,29.4v3.78h-8.85v-2.95l7.98-.83h.87Zm-4.62-15.3c0-5.67,0-11.38-.17-17.05h9.56c-.17,5.55-.17,11.27-.17,17.05v1.81c0,5.89,0,11.61.17,17.27h-9.56c.17-5.55.17-11.27.17-17.05v-2.04Zm18.02-17.05l3.98,3.11h-17.39v-3.11h19.24l.39,9.47h-4.59l-1.63-9.47Zm-1.3,19.1h-12.11v-3.24h12.11v3.24Zm8.61,7.56l-.38,9.47h-20.34v-3.07h18.49l-3.98,3.07,1.63-9.47h4.59Zm-10.29-9.85l.83-5.27h3.19v11.84h-3.19l-.83-5.55v-1.02Z" style="fill:#e6e7e8;"/><path d="m151.8,180.93v2.83l-3.69.81,1.85-8.62h4.19l-.22,8.45c-2.95,1.63-6.82,2.8-11.55,2.8-10.59,0-19.1-6.24-19.1-19.09s9.16-19.09,19.48-19.09c4.16,0,7.51.93,10.77,2.72l.22,8.53h-4.19l-1.89-8.69,3.69.85v3.04c-2.62-2.36-4.83-3.33-7.31-3.33-5.88,0-11.04,4.78-11.04,16.02s4.95,15.9,10.77,15.9c2.74,0,5.42-1.13,8-3.12Z" style="fill:#e6e7e8;"/><path d="m157.45,152.99v-2.95h18.14v2.95l-8.14.82h-2.01l-7.98-.82Zm8.85,29.4v3.78h-8.85v-2.95l7.98-.83h.87Zm-4.78-32.35h9.56c-.17,5.58-.17,11.3-.17,17.05v2.9c0,4.83,0,10.55.17,16.19h-9.56c.17-5.58.17-11.3.17-15.9v-3.19c0-5.7,0-11.41-.17-17.05Zm24.96,25.36l-.55,10.78h-19.63v-3.15h17.79l-4.18,3.15,2.16-10.78h4.41Z" style="fill:#e6e7e8;"/><path d="m188.02,183.22l5.66-.83h.98l5.22.83v2.95h-11.85v-2.95Zm15.63-33.25h5.68l12.37,36.21h-9.4l-9.39-29.53,2.06-2.78-10.5,32.31h-3.26l12.44-36.21Zm-5.92,22.51h14.85l1.24,3.2h-17l.92-3.2Zm9.25,10.87l6.21-.82h3.68l7.06.82v2.83h-16.95v-2.83Z" style="fill:#e6e7e8;"/><path d="m244.48,178.69c0-2.9-1.43-4.22-4.75-5.69l-2.33-1.06c-6.48-2.95-10.21-6.22-10.21-12.31,0-6.6,5.33-10.61,13.67-10.61,3.92,0,7.71,1.04,10.39,2.8l-.45,7.7h-5.05l-1.34-8.3,4.43,1.58v2.75c-2.93-2.12-5.01-3.26-7.84-3.26-3.14,0-5.67,1.99-5.67,5s1.74,4.43,5,5.89l2.58,1.18c7.02,3.16,9.9,6.19,9.9,11.76,0,6.49-4.97,11.08-14.37,11.08-4.12,0-8.77-.92-11.94-2.88l.33-8.18h5.12l1.43,8.91-4.25-1.34v-2.64c3.49,1.88,5.75,2.86,9.3,2.86,3.92,0,6.03-2.26,6.03-5.24Z" style="fill:#e6e7e8;"/><path d="m273.9,178.69c0-2.9-1.43-4.22-4.75-5.69l-2.33-1.06c-6.48-2.95-10.21-6.22-10.21-12.31,0-6.6,5.33-10.61,13.67-10.61,3.92,0,7.71,1.04,10.39,2.8l-.45,7.7h-5.05l-1.34-8.3,4.43,1.58v2.75c-2.93-2.12-5.01-3.26-7.84-3.26-3.14,0-5.67,1.99-5.67,5s1.74,4.43,5,5.89l2.58,1.18c7.02,3.16,9.9,6.19,9.9,11.76,0,6.49-4.97,11.08-14.37,11.08-4.12,0-8.77-.92-11.94-2.88l.33-8.18h5.12l1.43,8.91-4.25-1.34v-2.64c3.49,1.88,5.75,2.86,9.3,2.86,3.92,0,6.03-2.26,6.03-5.24Z" style="fill:#e6e7e8;"/><path d="m285.49,152.99v-2.95h17.74v2.95l-8.14.82h-1.62l-7.98-.82Zm9.6,29.4l8.14.83v2.95h-17.74v-2.95l7.98-.83h1.62Zm-5.37-15.3c0-5.67,0-11.38-.17-17.05h9.56c-.17,5.55-.17,11.27-.17,17.05v2c0,5.7,0,11.42.17,17.09h-9.56c.17-5.55.17-11.27.17-17.05v-2.04Z" style="fill:#e6e7e8;"/><path d="m334.62,180.93v2.83l-3.69.81,1.85-8.62h4.19l-.22,8.45c-2.95,1.63-6.82,2.8-11.54,2.8-10.59,0-19.1-6.24-19.1-19.09s9.16-19.09,19.49-19.09c4.16,0,7.51.93,10.77,2.72l.22,8.53h-4.19l-1.89-8.69,3.69.85v3.04c-2.62-2.36-4.83-3.33-7.31-3.33-5.88,0-11.04,4.78-11.04,16.02s4.95,15.9,10.77,15.9c2.74,0,5.42-1.13,8-3.12Z" style="fill:#e6e7e8;"/><path d="m351.24,183.22l6.41-.83h1.58l5.43.83v2.95h-13.41v-2.95Zm.48-33.18h7.85l.08,3.78h-.9l-7.04-.82v-2.95Zm4.83,0h3.14l.42,19.05v17.08h-3.56v-36.13Zm.33,0h9.34l9.9,26.77h-1.83l9.35-26.77h3.63l-12.69,36.13h-4.24l-13.46-36.13Zm23.29,33.18l7.04-.83h2.53l7.98.83v2.95h-17.55v-2.95Zm4.11-12.94l.2-20.23h9.17c-.16,5.63-.16,11.35-.16,17.05v2.04c0,5.74,0,11.46.16,17.05h-9.53c.17-5.63.12-11.35.17-15.9Zm4.59-20.23h8.65v2.95l-7.78.82h-.87v-3.78Z" style="fill:#e6e7e8;"/><path d="m399.99,183.22l5.66-.83h.98l5.22.83v2.95h-11.85v-2.95Zm15.63-33.25h5.68l12.37,36.21h-9.4l-9.39-29.53,2.06-2.78-10.5,32.31h-3.26l12.44-36.21Zm-5.92,22.51h14.85l1.24,3.2h-17l.92-3.2Zm9.25,10.87l6.21-.82h3.68l7.06.82v2.83h-16.95v-2.83Z" style="fill:#e6e7e8;"/><path d="m438.04,183.22l5.85-.83h1.58l7.08.83v2.95h-14.51v-2.95Zm2.87-31.24l3.17,1.56-5.96-.51v-2.99h12.42l19.73,27.08v9.16h-4.66l-24.69-34.3Zm1.8-1.94l3.54,2.99v33.14h-3.54v-36.13Zm17.71,0h14.51v2.95l-5.58.82h-1.54l-7.39-.82v-2.95Zm6.29,0h3.54v36.24l-3.54-3.54v-32.7Z" style="fill:#e6e7e8;"/><path d="m82.49,201.33c-2.91-12.09-4.44-24.71-4.44-37.69,0-11.05,1.11-21.84,3.23-32.26h53.51c-3.55,11.02-5.47,22.77-5.47,34.97" style="fill:none;"/><path d="m400.34,163.64c0,12.98-1.53,25.6-4.44,37.69h-44.16c3.56-11.02,5.48-22.78,5.48-34.98s-1.92-23.95-5.47-34.97h45.36c2.12,10.42,3.23,21.21,3.23,32.26Z" style="fill:none;"/><path d="m82.49,201.33H18.61v-69.95h62.67c-2.12,10.42-3.23,21.21-3.23,32.26,0,12.98,1.53,25.6,4.44,37.69Z" style="fill:none;"/><path d="m454.18,131.38v69.95h-58.28c2.91-12.09,4.44-24.71,4.44-37.69,0-11.05-1.11-21.84-3.23-32.26h57.07Z" style="fill:none;"/></svg>